<?xml version="1.0" encoding="UTF-8"?>
<svg id="Logo" xmlns="http://www.w3.org/2000/svg" viewBox="0 0 430.6 374.58">
  <defs>
    <style>
      .cls-1 {
        letter-spacing: -.02em;
      }

      .cls-2 {
        letter-spacing: -.03em;
      }

      .cls-3 {
        letter-spacing: -.02em;
      }

      .cls-4 {
        font-family: BricolageGrotesque-Bold, 'Bricolage Grotesque';
        font-size: 136.78px;
        font-variation-settings: 'opsz' 14, 'wght' 700, 'wdth' 100;
        font-weight: 700;
        fill: #457891;
      }
      
      .logo-color {
        fill: #457891;
      }
    </style>
  </defs>
  <g>
    <path class="logo-color" d="M13.23,219.37V0h71.79l61.16,165.19h1.66L208,0h68.47v219.37h-44.87l2.66-170.84h-3.32l-66.48,170.84h-40.55L58.43,48.53h-3.32l2.66,170.84H13.23Z"/>
    <path class="logo-color" d="M409.42,174.5c-2.88-10.19-6.26-18.72-10.14-25.59-3.88-6.87-9.14-12.3-15.79-16.29-6.65-3.99-15.74-6.65-27.25-7.98v-4.65c9.53-1.55,18.06-3.77,25.59-6.65,7.53-2.88,13.74-6.65,18.61-11.3,4.87-4.65,8.48-10.14,10.8-16.45,2.33-6.31,3.49-13.24,3.49-20.77,0-8.42-1.28-16.01-3.82-22.77-2.55-6.76-6.43-12.68-11.63-17.78-5.21-5.09-11.58-9.47-19.11-13.13-7.54-3.66-16.23-6.42-26.09-8.31-9.86-1.88-20.77-2.83-32.74-2.83h-89.08v219.37h47.53s-.05-75.82-.08-75.74c.03-.09.05-36.76.08-36.67V36.56h39.55c15.51,0,27.03,2.88,34.57,8.64,7.53,5.76,11.3,14.74,11.3,26.92s-4.05,20.83-12.13,26.59c-5,3.56-11.33,6.02-18.99,7.38-.04,8.71.77,17.38,2.44,25.87,1.61,8.22,5.61,15.8,11.46,21.8,1.03,1.06,2.01,2.21,2.93,3.45,3.77,5.1,6.76,12.08,8.97,20.94l9.97,41.21h52.85l-13.29-44.87Z"/>
  </g>
  <g>
    <circle class="logo-color" cx="313.03" cy="73.99" r="22.58"/>
    <polygon class="logo-color" points="313.03 73.99 285.59 219.37 340.47 219.37 313.03 73.99"/>
  </g>
  <text class="cls-4" transform="translate(6.09 325.75)"><tspan class="cls-3" x="0" y="0">H</tspan><tspan class="cls-2" x="96.57" y="0">O</tspan><tspan class="cls-1" x="190.53" y="0">TEL</tspan></text>
</svg>